<?xml version="1.0" encoding="utf-8"?>
<!-- Generator: Adobe Illustrator 27.7.0, SVG Export Plug-In . SVG Version: 6.00 Build 0)  -->
<svg version="1.1" xmlns="http://www.w3.org/2000/svg" xmlns:xlink="http://www.w3.org/1999/xlink" x="0px" y="0px"
	 viewBox="0 0 810 565" style="enable-background:new 0 0 810 565;" xml:space="preserve">
<style type="text/css">
	.st0{fill:url(#SVGID_1_);}
	.st1{opacity:0.5;fill:#DC2B56;}
	.st2{fill:url(#SVGID_00000042708676273099713370000013387532797842637478_);}
	.st3{fill:url(#SVGID_00000061471831998074296390000005757923363107682186_);}
	.st4{opacity:0.5;fill:#FFFFFF;}
	.st5{fill:#FFD10D;}
	.st6{fill:#FFAC1F;}
	.st7{fill:#FFF8C5;}
	.st8{fill:url(#SVGID_00000070104376862211846590000011113934581700435097_);}
	.st9{fill:url(#SVGID_00000097473918214389195530000015708070740653546169_);}
	.st10{fill:url(#SVGID_00000017484643896156026770000000389720170559064473_);}
	.st11{fill:url(#SVGID_00000068657768872799973780000014748609448709079972_);}
	.st12{fill:url(#SVGID_00000146490253429695306720000007194069556880983950_);}
	.st13{fill:#FFE587;}
	.st14{fill:#FFFFFF;}
	.st15{opacity:0.8;fill:#FFFFFF;}
	.st16{fill:url(#SVGID_00000038390962102665162410000016454618904552306339_);}
	.st17{fill:#33FF2E;}
	.st18{fill:url(#SVGID_00000123430169651155865970000010837060239544788395_);}
	.st19{fill:url(#SVGID_00000052065322239719310350000014272689045481429679_);}
	.st20{opacity:0.3;fill:#DC2B56;}
	.st21{opacity:0.1;}
	.st22{fill:#FF3CEC;}
	.st23{fill:url(#XMLID_00000151517589460684167060000006738383877282491547_);}
	.st24{fill:#FFD864;}
	.st25{fill:#FFA615;}
	.st26{fill:#FFE28E;}
	.st27{fill:url(#XMLID_00000067950595801083060230000007292821773347655322_);}
	.st28{fill:url(#XMLID_00000051344615045932970270000006858458651460183466_);}
	.st29{fill:url(#XMLID_00000110436460262582260230000018435674790279678910_);}
	.st30{fill:url(#XMLID_00000046328214234428248970000003662997540864225466_);}
	.st31{fill:url(#XMLID_00000149369980303760556630000001792971941818399410_);}
	.st32{opacity:0.5;fill:url(#XMLID_00000055689912707543294270000014665541554770073250_);}
	.st33{opacity:0.5;fill:url(#XMLID_00000175303143851361371120000017657469896566429356_);}
</style>
<g id="pin">
	<g>
		<g>
			<g>
				
					<linearGradient id="SVGID_1_" gradientUnits="userSpaceOnUse" x1="1820.3971" y1="238.7978" x2="1820.3971" y2="66.4354" gradientTransform="matrix(-1 0 0 1 1920 0)">
					<stop  offset="0" style="stop-color:#FF9E00"/>
					<stop  offset="1" style="stop-color:#FFDB4C"/>
				</linearGradient>
				<path class="st0" d="M51.7,212.2c33.3,23,142.7,26.6,142.7,26.6v-92.2c0,0-181-84.5-188.1-80C-0.9,71.3,18.5,189.3,51.7,212.2z"
					/>
				<path class="st1" d="M51.7,212.2c33.3,23,142.7,26.6,142.7,26.6v-19.1c0,0-104.2-22-122.5-43.3C53.8,155,6.3,66.6,6.3,66.6
					C-0.9,71.3,18.5,189.3,51.7,212.2z"/>
				
					<linearGradient id="SVGID_00000092415286747792087160000005527000332968628886_" gradientUnits="userSpaceOnUse" x1="1816.5377" y1="310.9864" x2="1816.5377" y2="195.6229" gradientTransform="matrix(-1 0 0 1 1920 0)">
					<stop  offset="0" style="stop-color:#FF9E00"/>
					<stop  offset="1" style="stop-color:#FFDB4C"/>
				</linearGradient>
				<path style="fill:url(#SVGID_00000092415286747792087160000005527000332968628886_);" d="M76.7,308.5c22.7,5.5,117.7,0,117.7,0
					v-76.4c0,0-167-45.8-180.8-34.8c-0.4,0.3-0.7,0.6-0.8,1C9.4,207.3,45.8,301.1,76.7,308.5z"/>
				<path class="st1" d="M76.7,308.5c22.7,5.5,117.7,0,117.7,0v-16.4c0,0-60.3,1.1-99.9-11.6c-31.5-10.1-70.7-68-80.9-83.2
					c-0.4,0.3-0.7,0.6-0.8,1C9.4,207.3,45.8,301.1,76.7,308.5z"/>
				
					<linearGradient id="SVGID_00000139280214012113705840000009767591319486217896_" gradientUnits="userSpaceOnUse" x1="1764.874" y1="374.6608" x2="1764.874" y2="307.5334" gradientTransform="matrix(-1 0 0 1 1920 0)">
					<stop  offset="0" style="stop-color:#FF9E00"/>
					<stop  offset="1" style="stop-color:#FFDB4C"/>
				</linearGradient>
				<path style="fill:url(#SVGID_00000139280214012113705840000009767591319486217896_);" d="M205.3,373.9c0,0-7.2-10-8.3-22.2
					c-1.3-13.1-2.6-29.9-2.6-43.2c0,0-85.7-2.3-89.2,0C101.6,310.8,135.7,382.5,205.3,373.9z"/>
				<path class="st1" d="M205.3,373.9c0,0-7.2-10-8.3-22.2l-2.6-2.8c0,0-63.1-4-89.2-40.5C101.6,310.8,135.7,382.5,205.3,373.9z"/>
				<path class="st1" d="M194.4,232.2l0.4-10.1c0,0-96.2-29.1-114.6-34.4c-18.4-5.3-43,7.7-43,7.7S93.1,202.5,194.4,232.2z"/>
				<path class="st1" d="M194.4,308.5v-16.4c0,0-75.4-4.2-90.9-4.7c-15.5-0.6-26.8,21.2-26.8,21.2l26.8,2.3l1.7-2.3H194.4z"/>
				<path class="st4" d="M140.1,217.2c26.4,7.1-14,55.3-40.5,57.7c-26.5,2.4-71.6-59.6-76.3-69.3
					C18.6,195.8,104.3,207.5,140.1,217.2z"/>
				<path class="st4" d="M132.4,118.1c10.6,6.3,45.2,76.3,44.9,87.4s-82.8-7.7-108.6-33.3c-25.8-25.6-49-93.3-49-93.3
					S81.4,87.8,132.4,118.1z"/>
				<path class="st4" d="M161,309.3c32.8,8.3,28.8,33.1,27.9,36.6c-0.9,3.5-36.3-2-53.3-12.8S107,311,107,311S150.6,306.7,161,309.3
					z"/>
				<path class="st4" d="M18.5,222.5c-1.9-7.1,26.2,23.5,29.7,36.1c3.6,12.7-1.3,21.9-1.3,21.9S24.4,244.6,18.5,222.5z"/>
				<path class="st4" d="M5.5,85.8C11,83.3,27.3,175,27.3,175S9.5,132.2,5.5,85.8z"/>
				<path class="st5" d="M182.3,217c0,0-83.8-27.3-103.6-41.9c-19.8-14.6-50.3-68.5-50.3-68.5s30.9,62.7,50.9,75.9
					C99.2,195.6,182.3,217,182.3,217z"/>
				<path class="st6" d="M194.4,292.1c0,0-70.2-7.7-95.9-14.8C72.8,270.2,34.9,227,34.9,227s36.2,47,59,55.9
					C116.7,291.9,194.4,292.1,194.4,292.1z"/>
				<path class="st6" d="M196.4,344.9c0,0-24.7-2.1-46.7-8.2c-22-6.1-33.7-16.3-33.7-16.3s34,29.7,80.3,29.4V344.9z"/>
				<path class="st7" d="M95.3,186.3c11,0.9,5.9-23.6-15.4-30.3S68.8,184.2,95.3,186.3z"/>
			</g>
			<g>
				
					<linearGradient id="SVGID_00000033349145243201348690000003945388465955220152_" gradientUnits="userSpaceOnUse" x1="-236.7808" y1="238.7978" x2="-236.7808" y2="66.4354" gradientTransform="matrix(1 0 0 1 949.0641 0)">
					<stop  offset="0" style="stop-color:#FF9E00"/>
					<stop  offset="1" style="stop-color:#FFDB4C"/>
				</linearGradient>
				<path style="fill:url(#SVGID_00000033349145243201348690000003945388465955220152_);" d="M760.2,212.2
					c-33.3,23-142.7,26.6-142.7,26.6v-92.2c0,0,181-84.5,188.1-80C812.7,71.3,793.4,189.3,760.2,212.2z"/>
				<path class="st1" d="M760.2,212.2c-33.3,23-142.7,26.6-142.7,26.6v-19.1c0,0,104.2-22,122.5-43.3
					c18.2-21.3,65.6-109.7,65.6-109.7C812.7,71.3,793.4,189.3,760.2,212.2z"/>
				
					<linearGradient id="SVGID_00000144326663422605217690000008555144603337946752_" gradientUnits="userSpaceOnUse" x1="-240.6402" y1="310.9864" x2="-240.6402" y2="195.6229" gradientTransform="matrix(1 0 0 1 949.0641 0)">
					<stop  offset="0" style="stop-color:#FF9E00"/>
					<stop  offset="1" style="stop-color:#FFDB4C"/>
				</linearGradient>
				<path style="fill:url(#SVGID_00000144326663422605217690000008555144603337946752_);" d="M735.2,308.5
					c-22.7,5.5-117.7,0-117.7,0v-76.4c0,0,167-45.8,180.8-34.8c0.4,0.3,0.7,0.6,0.8,1C802.5,207.3,766.1,301.1,735.2,308.5z"/>
				<path class="st1" d="M735.2,308.5c-22.7,5.5-117.7,0-117.7,0v-16.4c0,0,60.3,1.1,99.9-11.6c31.5-10.1,70.7-68,80.9-83.2
					c0.4,0.3,0.7,0.6,0.8,1C802.5,207.3,766.1,301.1,735.2,308.5z"/>
				
					<linearGradient id="SVGID_00000053546668883949325820000018187101428796890501_" gradientUnits="userSpaceOnUse" x1="-293.813" y1="371.6894" x2="-293.813" y2="307.5334" gradientTransform="matrix(1 0 0 1 949.0641 0)">
					<stop  offset="0" style="stop-color:#FF9E00"/>
					<stop  offset="1" style="stop-color:#FFDB4C"/>
				</linearGradient>
				<path style="fill:url(#SVGID_00000053546668883949325820000018187101428796890501_);" d="M603.5,370.9c0,0,1.2-9,2.3-21.2
					c1.3-13.1,11.6-27.9,11.6-41.2c0,0,85.7-2.3,89.2,0C710.3,310.8,673.2,379.5,603.5,370.9z"/>
				<path class="st1" d="M603.5,370.9c0,0,1.2-9,2.3-21.2l11.6-0.8c0,0,63.1-4,89.2-40.5C710.3,310.8,673.2,379.5,603.5,370.9z"/>
				<path class="st1" d="M617.5,232.2l-0.4-10.1c0,0,96.2-29.1,114.6-34.4c18.4-5.3,43,7.7,43,7.7S718.8,202.5,617.5,232.2z"/>
				<path class="st1" d="M617.5,308.5v-16.4c0,0,75.4-4.2,90.9-4.7c15.5-0.6,26.8,21.2,26.8,21.2l-26.8,2.3l-1.7-2.3H617.5z"/>
				<path class="st4" d="M671.8,217.2c-26.4,7.1,14,55.3,40.5,57.7c26.5,2.4,71.6-59.6,76.3-69.3
					C793.3,195.8,707.5,207.5,671.8,217.2z"/>
				<path class="st4" d="M679.4,118.1c-10.6,6.3-45.2,76.3-44.9,87.4c0.3,11.1,82.8-7.7,108.6-33.3c25.8-25.6,49-93.3,49-93.3
					S730.5,87.8,679.4,118.1z"/>
				<path class="st4" d="M650.9,309.3c-32.8,8.3-28.8,33.1-27.9,36.6c0.9,3.5,36.3-2,53.3-12.8s28.5-22.1,28.5-22.1
					S661.3,306.7,650.9,309.3z"/>
				<path class="st4" d="M793.4,222.5c1.9-7.1-26.2,23.5-29.7,36.1c-3.6,12.7,1.3,21.9,1.3,21.9S787.5,244.6,793.4,222.5z"/>
				<path class="st4" d="M806.4,85.8c-5.5-2.5-21.8,89.2-21.8,89.2S802.4,132.2,806.4,85.8z"/>
				<path class="st5" d="M629.6,217c0,0,83.8-27.3,103.6-41.9c19.8-14.6,50.3-68.5,50.3-68.5s-30.9,62.7-50.9,75.9
					C712.6,195.6,629.6,217,629.6,217z"/>
				<path class="st6" d="M617.5,292.1c0,0,70.2-7.7,95.9-14.8C739.1,270.2,777,227,777,227s-36.2,47-59,55.9
					C695.1,291.9,617.5,292.1,617.5,292.1z"/>
				<path class="st6" d="M615.5,344.9c0,0,24.7-2.1,46.7-8.2c22-6.1,33.7-16.3,33.7-16.3s-34,29.7-80.3,29.4V344.9z"/>
				<path class="st7" d="M716.6,186.3c-11,0.9-5.9-23.6,15.4-30.3C753.4,149.3,743.1,184.2,716.6,186.3z"/>
			</g>
			<g>
				
					<linearGradient id="SVGID_00000101811163552371342320000000046166491076678276_" gradientUnits="userSpaceOnUse" x1="165.5024" y1="242.1111" x2="641.2754" y2="242.1111">
					<stop  offset="0" style="stop-color:#FF9E00"/>
					<stop  offset="1" style="stop-color:#FFDB4C"/>
				</linearGradient>
				<path style="fill:url(#SVGID_00000101811163552371342320000000046166491076678276_);" d="M403.4,4.2
					C272,4.2,165.5,110.7,165.5,242.1S272,480,403.4,480c131.4,0,237.9-106.5,237.9-237.9S534.8,4.2,403.4,4.2z M403.4,421.8
					c-99.3,0-179.7-80.5-179.7-179.7S304.1,62.4,403.4,62.4c99.2,0,179.7,80.5,179.7,179.7S502.6,421.8,403.4,421.8z"/>
				<path class="st4" d="M248.4,80.2c-3.5,16.5-6.4,56.7,25.8,31.4c32.1-25.3,57-53.1,135.1-53.6c78.1-0.5,124.7,52,148.9,87.8
					c24.2,35.8,13.9-33.7,16.7-40.2c2.8-6.5-21.5-90.1-159.6-90.1S249.8,73.5,248.4,80.2z"/>
				
					<linearGradient id="SVGID_00000045620269385193950020000004476215367373370555_" gradientUnits="userSpaceOnUse" x1="403.3889" y1="464.1274" x2="403.3889" y2="20.0948">
					<stop  offset="0" style="stop-color:#F75C00"/>
					<stop  offset="0.1536" style="stop-color:#D43D00"/>
					<stop  offset="0.1953" style="stop-color:#D94800"/>
					<stop  offset="0.3232" style="stop-color:#E76500"/>
					<stop  offset="0.4598" style="stop-color:#F27C00"/>
					<stop  offset="0.6075" style="stop-color:#F98C00"/>
					<stop  offset="0.7742" style="stop-color:#FE9500"/>
					<stop  offset="1" style="stop-color:#FF9800"/>
				</linearGradient>
				<path style="fill:url(#SVGID_00000045620269385193950020000004476215367373370555_);" d="M403.4,20.1c-122.6,0-222,99.4-222,222
					s99.4,222,222,222c122.6,0,222-99.4,222-222S526,20.1,403.4,20.1z M403.4,421.8c-99.3,0-179.7-80.5-179.7-179.7
					S304.1,62.4,403.4,62.4c99.2,0,179.7,80.5,179.7,179.7S502.6,421.8,403.4,421.8z"/>
				<path class="st13" d="M200.2,152.6c0,0,56.1-121.9,209-121.9s204.5,145.2,204.5,145.2s-38.5-155.8-204-158.8
					C263.5,14.5,200.2,152.6,200.2,152.6z"/>
				<path class="st14" d="M296,40.4c-10.2,21.8,44.4-5.6,62.4-11.5C375.5,23.1,309,12.5,296,40.4z"/>
				<path class="st15" d="M228.7,378.3c0,0,67.8,75.9,174.6,75.9S578,378.3,578,378.3s-61.5,85.8-174.7,85.8
					S228.7,378.3,228.7,378.3z"/>
				
					<linearGradient id="SVGID_00000140711905557565647120000008890700394138206898_" gradientUnits="userSpaceOnUse" x1="403.3887" y1="431.2439" x2="403.3887" y2="52.9783">
					<stop  offset="0" style="stop-color:#FFC200"/>
					<stop  offset="0.1089" style="stop-color:#FFA200"/>
					<stop  offset="0.1679" style="stop-color:#ED8500"/>
					<stop  offset="0.2657" style="stop-color:#D35C00"/>
					<stop  offset="0.3612" style="stop-color:#BE3B00"/>
					<stop  offset="0.4526" style="stop-color:#B02400"/>
					<stop  offset="0.5381" style="stop-color:#A71600"/>
					<stop  offset="0.6117" style="stop-color:#A41100"/>
					<stop  offset="0.6607" style="stop-color:#B01D00"/>
					<stop  offset="0.7468" style="stop-color:#BF2B00"/>
					<stop  offset="0.8479" style="stop-color:#C83300"/>
					<stop  offset="1" style="stop-color:#CB3600"/>
				</linearGradient>
				<path style="fill:url(#SVGID_00000140711905557565647120000008890700394138206898_);" d="M403.4,53
					c-104.5,0-189.1,84.7-189.1,189.1s84.6,189.1,189.1,189.1c104.4,0,189.1-84.7,189.1-189.1S507.8,53,403.4,53z M403.4,421.8
					c-99.3,0-179.7-80.5-179.7-179.7S304.1,62.4,403.4,62.4c99.2,0,179.7,80.5,179.7,179.7S502.6,421.8,403.4,421.8z"/>
			</g>
		</g>
	</g>
</g>
<g id="fonto_x5F_pin">
	<circle class="st17" cx="404.8" cy="241.4" r="182.3"/>
</g>
<g id="micropin">
	
		<linearGradient id="SVGID_00000134933535792493350250000004775882578698581120_" gradientUnits="userSpaceOnUse" x1="1514.0569" y1="560.6905" x2="1514.0569" y2="409.72" gradientTransform="matrix(-1 0 0 1 1920 0)">
		<stop  offset="0" style="stop-color:#C63800"/>
		<stop  offset="0.198" style="stop-color:#D85C00"/>
		<stop  offset="0.4239" style="stop-color:#E97E00"/>
		<stop  offset="0.639" style="stop-color:#F59600"/>
		<stop  offset="0.8364" style="stop-color:#FCA500"/>
		<stop  offset="1" style="stop-color:#FFAA00"/>
	</linearGradient>
	<path style="fill:url(#SVGID_00000134933535792493350250000004775882578698581120_);" d="M353.8,411.8l53.5-2.1l50.8,2.1
		c0,0,14.4,63.9,15.8,79.1c1.4,15.3-58.4,68-67.9,69.8c-9.5-1.8-69.3-54.5-67.9-69.8C339.5,475.7,353.8,411.8,353.8,411.8z"/>
	
		<linearGradient id="SVGID_00000175282056251469958550000015603306044803071622_" gradientUnits="userSpaceOnUse" x1="1514.0569" y1="545.2692" x2="1514.0569" y2="415.8595" gradientTransform="matrix(-1 0 0 1 1920 0)">
		<stop  offset="0" style="stop-color:#FFC200"/>
		<stop  offset="0.1089" style="stop-color:#FFA200"/>
		<stop  offset="0.1679" style="stop-color:#ED8500"/>
		<stop  offset="0.2657" style="stop-color:#D35C00"/>
		<stop  offset="0.3612" style="stop-color:#BE3B00"/>
		<stop  offset="0.4526" style="stop-color:#B02400"/>
		<stop  offset="0.5381" style="stop-color:#A71600"/>
		<stop  offset="0.6117" style="stop-color:#A41100"/>
		<stop  offset="0.6607" style="stop-color:#B01D00"/>
		<stop  offset="0.7468" style="stop-color:#BF2B00"/>
		<stop  offset="0.8479" style="stop-color:#C83300"/>
		<stop  offset="1" style="stop-color:#CB3600"/>
	</linearGradient>
	<path style="fill:url(#SVGID_00000175282056251469958550000015603306044803071622_);" d="M363.8,425l42.1-9.2L448,425
		c0,0,11.6,51.6,12.7,63.9c1.1,12.3-47.2,54.9-54.8,56.3c-7.7-1.4-56-44-54.8-56.3C352.2,476.6,363.8,425,363.8,425z"/>
	<path class="st5" d="M439.6,518.3c0,0-27.5,17-32.4,18c-5,1-36.8-19.9-36.8-19.9s28.6,27.7,35.6,28.9
		C412.9,546.5,439.6,518.3,439.6,518.3z"/>
	<path class="st20" d="M405.9,559.8c0,0-1.8-8.6-11-19.8c-9.2-11.3-34.8-33.2-40-35.2c-5.2-2.1-10.1,0-10.1,0S381,552.8,405.9,559.8
		z"/>
	<path class="st1" d="M470.3,497.7c-2-2.7-12.3-0.9-13.3,0.6c-1.1,1.5-14.1,16.6-14.1,16.6s7,5.1,12.7,1.4
		C461.3,512.7,470.3,497.7,470.3,497.7z"/>
	<path class="st21" d="M454.2,489.6c-1.3-4.2-84.4,2.4-88.3,4.1c-3.9,1.8,24.5,38.4,41.3,37.1C424,529.6,456,495.2,454.2,489.6z"/>
	<path class="st5" d="M351.1,453c3.7-1.6,2.4,34.3,0,36c-2.4,1.7-13.1,2-13.1,2S343.7,456.1,351.1,453z"/>
</g>
<g id="fondo_x5F_estrellita">
	<path class="st22" d="M366.8,429l39.1-8.5l39.1,8.5c0,0,10.8,47.9,11.8,59.4c1.1,11.5-43.9,47-51,48.4c-7.1-1.3-52-36.9-51-48.4
		C356,476.9,366.8,429,366.8,429z"/>
</g>
<g id="estrella">
	<g id="XMLID_00000019647025421324081090000003721080440391633040_">
		
			<linearGradient id="XMLID_00000134944027025651311760000000524017573623398283_" gradientUnits="userSpaceOnUse" x1="361.0834" y1="469.5584" x2="448.775" y2="469.5584">
			<stop  offset="0" style="stop-color:#FF9E00"/>
			<stop  offset="1" style="stop-color:#FFDB4C"/>
		</linearGradient>
		
			<polygon id="XMLID_00000047022342340223905840000015510331580057031073_" style="fill:url(#XMLID_00000134944027025651311760000000524017573623398283_);" points="
			404.9,427.9 418.5,455.3 448.8,459.7 426.9,481.1 432,511.3 404.9,497 377.8,511.3 383,481.1 361.1,459.7 391.4,455.3 		"/>
		<g id="XMLID_00000049192501735561699180000015946881901243175562_">
			<polygon id="XMLID_00000096758333887206816760000011981652951830248328_" class="st24" points="448.8,459.7 404.9,469.6 
				445.1,463.3 			"/>
			<polygon id="XMLID_00000030477369533825584320000012930145661815966631_" class="st24" points="404.9,427.9 404.9,469.6 
				406.9,431.9 			"/>
		</g>
		<polygon id="XMLID_00000142884152889294590370000003773456038110271920_" class="st25" points="404.9,447.5 412.1,462 
			428.1,464.4 416.5,475.7 419.3,491.6 404.9,484.1 390.6,491.6 393.3,475.7 381.7,464.4 397.8,462 		"/>
		<polygon id="XMLID_00000069393239897168814870000011362389576935506845_" class="st26" points="404.9,449.3 411.5,462.6 
			426.3,464.8 415.6,475.2 418.1,489.9 404.9,482.9 391.7,489.9 394.3,475.2 383.6,464.8 398.3,462.6 		"/>
		<g id="XMLID_00000017497992253514142000000011389856374085047474_">
			
				<radialGradient id="XMLID_00000057829696690153694340000007735588498834138282_" cx="398.1547" cy="444.9421" r="12.995" gradientUnits="userSpaceOnUse">
				<stop  offset="0.4387" style="stop-color:#FFFFFF"/>
				<stop  offset="1" style="stop-color:#DEA045"/>
			</radialGradient>
			
				<polygon id="XMLID_00000143591318478935548890000000270637927868391840_" style="fill:url(#XMLID_00000057829696690153694340000007735588498834138282_);" points="
				404.9,427.9 404.9,447.5 397.8,462 391.4,455.3 			"/>
			
				<radialGradient id="XMLID_00000053536006487660139880000011382882961513301419_" cx="377.2104" cy="470.3992" r="13.6793" gradientUnits="userSpaceOnUse">
				<stop  offset="0.4387" style="stop-color:#FFFFFF"/>
				<stop  offset="1" style="stop-color:#DEA045"/>
			</radialGradient>
			
				<polygon id="XMLID_00000082329544822731373460000017113605291176251795_" style="fill:url(#XMLID_00000053536006487660139880000011382882961513301419_);" points="
				361.1,459.7 381.7,464.4 393.3,475.7 383,481.1 			"/>
			
				<radialGradient id="XMLID_00000076584779501661884480000012283392787862388895_" cx="391.3801" cy="497.6664" r="13.5705" gradientUnits="userSpaceOnUse">
				<stop  offset="0.4387" style="stop-color:#FFFFFF"/>
				<stop  offset="1" style="stop-color:#DEA045"/>
			</radialGradient>
			
				<polygon id="XMLID_00000033354855191019788830000015356454388985391549_" style="fill:url(#XMLID_00000076584779501661884480000012283392787862388895_);" points="
				390.6,491.6 377.8,511.3 404.9,497 404.9,484.1 			"/>
			
				<radialGradient id="XMLID_00000097479192225759989350000002203242598363434886_" cx="424.2742" cy="493.4554" r="13.7305" gradientUnits="userSpaceOnUse">
				<stop  offset="0.4387" style="stop-color:#FFFFFF"/>
				<stop  offset="1" style="stop-color:#DEA045"/>
			</radialGradient>
			
				<polygon id="XMLID_00000041260053063332032890000007798563193997177017_" style="fill:url(#XMLID_00000097479192225759989350000002203242598363434886_);" points="
				419.3,491.6 432,511.3 426.9,481.1 416.5,475.7 			"/>
			
				<radialGradient id="XMLID_00000056406330436682393670000017060298367292404159_" cx="430.4342" cy="459.8327" r="13.3571" gradientUnits="userSpaceOnUse">
				<stop  offset="0.4387" style="stop-color:#FFFFFF"/>
				<stop  offset="1" style="stop-color:#DEA045"/>
			</radialGradient>
			
				<polygon id="XMLID_00000080900666839207518290000016469690516141525933_" style="fill:url(#XMLID_00000056406330436682393670000017060298367292404159_);" points="
				428.1,464.4 448.8,459.7 418.5,455.3 412.1,462 			"/>
		</g>
		<g id="XMLID_00000176743821567482697160000012656045637892633994_">
			
				<linearGradient id="XMLID_00000031191358444575029580000013028998100957550492_" gradientUnits="userSpaceOnUse" x1="403.08" y1="475.8232" x2="413.2971" y2="458.1757">
				<stop  offset="0" style="stop-color:#FFFFFF"/>
				<stop  offset="1" style="stop-color:#FFCD00"/>
			</linearGradient>
			
				<path id="XMLID_00000044142261894026697830000017775072149162498462_" style="opacity:0.5;fill:url(#XMLID_00000031191358444575029580000013028998100957550492_);" d="
				M404.9,449.3l-6.6,13.4l-4.8,0.7c6.1,5.6,14.1,9,23,9c0.7,0,1.4,0,2.1-0.1l7.6-7.4l-14.8-2.1L404.9,449.3z"/>
			
				<linearGradient id="XMLID_00000165192050724234941450000002698918270613604015_" gradientUnits="userSpaceOnUse" x1="402.3548" y1="479.9346" x2="407.1537" y2="488.9131">
				<stop  offset="0" style="stop-color:#FFFFFF"/>
				<stop  offset="1" style="stop-color:#FFCD00"/>
			</linearGradient>
			
				<path id="XMLID_00000058546845647582980830000005880399225891477893_" style="opacity:0.5;fill:url(#XMLID_00000165192050724234941450000002698918270613604015_);" d="
				M393.5,489l11.5-6l13.2,6.9l-1.5-9c-1.5-0.3-3-0.4-4.5-0.4C404.7,480.5,398,483.8,393.5,489z"/>
		</g>
	</g>
</g>
</svg>
