<?xml version="1.0" encoding="utf-8"?>
<!-- Generator: Adobe Illustrator 27.7.0, SVG Export Plug-In . SVG Version: 6.00 Build 0)  -->
<svg version="1.1" id="rayas" xmlns="http://www.w3.org/2000/svg" xmlns:xlink="http://www.w3.org/1999/xlink" x="0px" y="0px"
	 viewBox="0 0 1920 1920" style="enable-background:new 0 0 1920 1920;" xml:space="preserve">
<style type="text/css">
	.st0{fill:#69D7FF;}
</style>
<g>
	<g>
		<path class="st0" d="M0,0h88.2l214.7,236.5l657.2,723.6L512.6,1829l-46.8,91H342.4l88.8-138l528.9-822l723.5,657.1l236.5,214.8
			v88.1h-88.1l-214.8-236.5L960.1,960.1l-869,447.4L0,1454.4v123.2l138-88.8l822.1-528.7l-869-447.5L0,465.7V342.4l138,88.8
			l822.1,528.9l298-930.9l9.3-29.2h-99l-1,4.9L960.1,960.1l868.9,447.4l91,46.9v123.2l-138-88.8L960.1,960.1L1829,512.6l91-46.8
			V342.4l-138,88.8L960.1,960.1L4.9,752.7l-4.9-1v-99l29.2,9.3l930.9,298.1l447.4-869L1454.4,0h123.2l-88.8,138L960.1,960.1
			l955.2,207.3l4.8,1v99l-29.2-9.3l-930.8-298l-723.6,657.1L0,1831.9v88.1h88.2l214.7-236.5l657.2-723.5L0,1006.2v-92.4l960.1,46.3
			L1006.2,0h-92.4l46.3,960.1l959.9-46.3v92.4l-959.9-46.1l723.5-657.2L1920,88.2V0h-88.1l-214.8,236.5L960.1,960.1L29.2,1258
			L0,1267.4v-99l4.9-1l955.2-207.3l298,930.8l9.3,29.2h-99l-1-4.8L960.1,960.1L431.2,138L342.4,0h123.3l46.8,91.1l447.5,869
			L662,1890.8l-9.3,29.2h99l1-4.8l207.4-955.2l528.7,822l88.8,138h-123.2l-46.9-91L960.1,960.1l955.2-207.4l4.8-1v-99l-29.2,9.3
			L960.1,960.1L236.5,302.9L0,88.2V0z M652.6,0h99l1,4.9l207.4,955.2l46.1,959.9h-92.4l46.3-959.9L662,29.2L652.6,0z"/>
	</g>
</g>
</svg>
